<svg width="334" height="66" viewBox="0 0 334 66" fill="none" xmlns="http://www.w3.org/2000/svg">
<g clip-path="url(#clip0)">
<path d="M322.845 24.8897C321.979 24.4215 321.04 24.2184 320.12 24.2524C321.124 21.7695 320.119 18.8685 317.711 17.5661C316.745 17.044 315.69 16.8523 314.672 16.949C315.017 14.7759 313.985 12.5202 311.942 11.4153C309.899 10.3105 307.446 10.6822 305.816 12.1604C305.34 11.2562 304.602 10.4779 303.637 9.95587C301.049 8.55684 297.807 9.52311 296.408 12.1106L290.066 23.8392C289.717 24.4862 288.907 24.7278 288.259 24.3778C287.612 24.028 287.371 23.2179 287.721 22.5708L288.941 20.3133C289.206 19.8242 289.139 19.2226 288.774 18.803C288.409 18.3869 287.823 18.2359 287.301 18.4301C284.549 19.4599 282.286 21.4096 280.928 23.9202C275.093 34.7119 279.125 48.2382 289.917 54.0735L292.63 55.5406C301.037 60.0864 311.576 56.945 316.122 48.5379L325 32.118C326.399 29.5306 325.433 26.2888 322.845 24.8897Z" fill="#2C3E50"/>
</g>
<path d="M30.888 15.76C31.7093 15.76 32.3693 16.024 32.868 16.552C33.3667 17.0507 33.616 17.7253 33.616 18.576V44.624C33.616 45.4453 33.3813 46.0907 32.912 46.56C32.4427 47.0293 31.8267 47.264 31.064 47.264C30.3013 47.264 29.7 47.0293 29.26 46.56C28.82 46.0907 28.6 45.4453 28.6 44.624V26.496L21.12 40.664C20.768 41.3093 20.3867 41.7933 19.976 42.116C19.5653 42.4093 19.0813 42.556 18.524 42.556C17.9667 42.556 17.4827 42.4093 17.072 42.116C16.6613 41.8227 16.28 41.3387 15.928 40.664L8.404 26.716V44.624C8.404 45.416 8.16933 46.0613 7.7 46.56C7.26 47.0293 6.65867 47.264 5.896 47.264C5.13333 47.264 4.532 47.0293 4.092 46.56C3.652 46.0907 3.432 45.4453 3.432 44.624V18.576C3.432 17.7253 3.66667 17.0507 4.136 16.552C4.63467 16.024 5.29467 15.76 6.116 15.76C7.26 15.76 8.15467 16.3907 8.8 17.652L18.568 36.264L28.292 17.652C28.9373 16.3907 29.8027 15.76 30.888 15.76ZM49.1841 24.956C52.1761 24.956 54.3908 25.704 55.8281 27.2C57.2948 28.6667 58.0281 30.9107 58.0281 33.932V44.668C58.0281 45.46 57.7934 46.0907 57.3241 46.56C56.8548 47 56.2094 47.22 55.3881 47.22C54.6254 47.22 53.9948 46.9853 53.4961 46.516C53.0268 46.0467 52.7921 45.4307 52.7921 44.668V43.7C52.2934 44.844 51.5014 45.7387 50.4161 46.384C49.3601 47.0293 48.1281 47.352 46.7201 47.352C45.2828 47.352 43.9774 47.0587 42.8041 46.472C41.6308 45.8853 40.7068 45.0787 40.0321 44.052C39.3574 43.0253 39.0201 41.8813 39.0201 40.62C39.0201 39.036 39.4161 37.7893 40.2081 36.88C41.0294 35.9707 42.3494 35.3107 44.1681 34.9C45.9868 34.4893 48.4948 34.284 51.6921 34.284H52.7921V33.272C52.7921 31.8347 52.4841 30.7933 51.8681 30.148C51.2521 29.4733 50.2548 29.136 48.8761 29.136C48.0254 29.136 47.1601 29.268 46.2801 29.532C45.4001 29.7667 44.3588 30.1187 43.1561 30.588C42.3934 30.9693 41.8361 31.16 41.4841 31.16C40.9561 31.16 40.5161 30.9693 40.1641 30.588C39.8414 30.2067 39.6801 29.708 39.6801 29.092C39.6801 28.5933 39.7974 28.168 40.0321 27.816C40.2961 27.4347 40.7214 27.0827 41.3081 26.76C42.3348 26.2027 43.5521 25.7627 44.9601 25.44C46.3974 25.1173 47.8054 24.956 49.1841 24.956ZM47.8201 43.392C49.2868 43.392 50.4748 42.908 51.3841 41.94C52.3228 40.9427 52.7921 39.6667 52.7921 38.112V37.188H52.0001C50.0348 37.188 48.5094 37.276 47.4241 37.452C46.3388 37.628 45.5614 37.936 45.0921 38.376C44.6228 38.816 44.3881 39.4173 44.3881 40.18C44.3881 41.1187 44.7108 41.896 45.3561 42.512C46.0308 43.0987 46.8521 43.392 47.8201 43.392ZM52.3961 21.304C51.8681 21.304 51.3401 21.1867 50.8121 20.952C50.3134 20.7173 49.6681 20.3653 48.8761 19.896C48.2308 19.5147 47.7174 19.236 47.3361 19.06C46.9548 18.884 46.6028 18.796 46.2801 18.796C45.8108 18.796 45.4294 18.9133 45.1361 19.148C44.8721 19.3827 44.5934 19.72 44.3001 20.16C44.0654 20.512 43.8601 20.776 43.6841 20.952C43.5081 21.0987 43.2881 21.172 43.0241 21.172C42.7014 21.172 42.4228 21.04 42.1881 20.776C41.9828 20.4827 41.8801 20.116 41.8801 19.676C41.8801 19.0893 42.0561 18.444 42.4081 17.74C42.7601 17.0067 43.2441 16.3907 43.8601 15.892C44.5054 15.364 45.2094 15.1 45.9721 15.1C46.5001 15.1 47.0134 15.2173 47.5121 15.452C48.0401 15.6867 48.7001 16.0387 49.4921 16.508C50.1374 16.8893 50.6508 17.168 51.0321 17.344C51.4134 17.52 51.7654 17.608 52.0881 17.608C52.5574 17.608 52.9241 17.4907 53.1881 17.256C53.4814 17.0213 53.7748 16.684 54.0681 16.244C54.3028 15.892 54.5081 15.6427 54.6841 15.496C54.8601 15.32 55.0801 15.232 55.3441 15.232C55.6961 15.232 55.9748 15.3787 56.1801 15.672C56.3854 15.936 56.4881 16.288 56.4881 16.728C56.4881 17.3147 56.3121 17.9747 55.9601 18.708C55.6081 19.412 55.1094 20.028 54.4641 20.556C53.8481 21.0547 53.1588 21.304 52.3961 21.304ZM73.4298 47.352C71.2298 47.352 69.2938 46.8973 67.6218 45.988C65.9791 45.0787 64.7031 43.7733 63.7938 42.072C62.8845 40.3707 62.4298 38.3907 62.4298 36.132C62.4298 33.8733 62.8845 31.908 63.7938 30.236C64.7031 28.5347 65.9791 27.2293 67.6218 26.32C69.2938 25.4107 71.2298 24.956 73.4298 24.956C75.6298 24.956 77.5511 25.4107 79.1938 26.32C80.8658 27.2293 82.1418 28.5347 83.0218 30.236C83.9311 31.908 84.3858 33.8733 84.3858 36.132C84.3858 38.3907 83.9311 40.3707 83.0218 42.072C82.1418 43.7733 80.8658 45.0787 79.1938 45.988C77.5511 46.8973 75.6298 47.352 73.4298 47.352ZM73.3858 43.084C75.1751 43.084 76.5391 42.4973 77.4778 41.324C78.4165 40.1507 78.8858 38.42 78.8858 36.132C78.8858 33.8733 78.4165 32.1573 77.4778 30.984C76.5391 29.7813 75.1898 29.18 73.4298 29.18C71.6698 29.18 70.3058 29.7813 69.3378 30.984C68.3991 32.1573 67.9298 33.8733 67.9298 36.132C67.9298 38.42 68.3991 40.1507 69.3378 41.324C70.2765 42.4973 71.6258 43.084 73.3858 43.084ZM104.172 47.264C103.321 47.264 102.632 47 102.104 46.472C101.605 45.944 101.356 45.2547 101.356 44.404V18.664C101.356 17.8133 101.59 17.1533 102.06 16.684C102.558 16.2147 103.233 15.98 104.084 15.98H119.528C121.317 15.98 122.212 16.7427 122.212 18.268C122.212 19.764 121.317 20.512 119.528 20.512H106.944V28.96H118.648C120.437 28.96 121.332 29.7227 121.332 31.248C121.332 32.744 120.437 33.492 118.648 33.492H106.944V44.404C106.944 45.2547 106.694 45.944 106.196 46.472C105.697 47 105.022 47.264 104.172 47.264ZM142.392 41.104C142.891 41.104 143.287 41.2947 143.58 41.676C143.903 42.0573 144.064 42.5707 144.064 43.216C144.064 44.1253 143.521 44.888 142.436 45.504C141.439 46.0613 140.309 46.516 139.048 46.868C137.787 47.1907 136.584 47.352 135.44 47.352C131.979 47.352 129.236 46.3547 127.212 44.36C125.188 42.3653 124.176 39.6373 124.176 36.176C124.176 33.976 124.616 32.0253 125.496 30.324C126.376 28.6227 127.608 27.3027 129.192 26.364C130.805 25.4253 132.624 24.956 134.648 24.956C136.584 24.956 138.271 25.3813 139.708 26.232C141.145 27.0827 142.26 28.2853 143.052 29.84C143.844 31.3947 144.24 33.228 144.24 35.34C144.24 36.6013 143.683 37.232 142.568 37.232H129.588C129.764 39.256 130.336 40.752 131.304 41.72C132.272 42.6587 133.68 43.128 135.528 43.128C136.467 43.128 137.288 43.0107 137.992 42.776C138.725 42.5413 139.547 42.2187 140.456 41.808C141.336 41.3387 141.981 41.104 142.392 41.104ZM134.78 28.828C133.284 28.828 132.081 29.2973 131.172 30.236C130.292 31.1747 129.764 32.524 129.588 34.284H139.532C139.473 32.4947 139.033 31.1453 138.212 30.236C137.391 29.2973 136.247 28.828 134.78 28.828ZM158.287 47.352C156.146 47.352 154.254 46.8973 152.611 45.988C150.998 45.0787 149.751 43.788 148.871 42.116C147.991 40.444 147.551 38.4933 147.551 36.264C147.551 34.0347 148.006 32.0693 148.915 30.368C149.854 28.6373 151.159 27.3027 152.831 26.364C154.503 25.4253 156.424 24.956 158.595 24.956C159.739 24.956 160.883 25.1173 162.027 25.44C163.2 25.7627 164.227 26.2027 165.107 26.76C166.046 27.376 166.515 28.1533 166.515 29.092C166.515 29.7373 166.354 30.2653 166.031 30.676C165.738 31.0573 165.342 31.248 164.843 31.248C164.52 31.248 164.183 31.1747 163.831 31.028C163.479 30.8813 163.127 30.7053 162.775 30.5C162.13 30.1187 161.514 29.8253 160.927 29.62C160.34 29.3853 159.666 29.268 158.903 29.268C157.084 29.268 155.676 29.8693 154.679 31.072C153.711 32.2453 153.227 33.9467 153.227 36.176C153.227 38.376 153.711 40.0773 154.679 41.28C155.676 42.4533 157.084 43.04 158.903 43.04C159.636 43.04 160.282 42.9373 160.839 42.732C161.426 42.4973 162.071 42.1893 162.775 41.808C163.215 41.544 163.596 41.3533 163.919 41.236C164.242 41.0893 164.564 41.016 164.887 41.016C165.356 41.016 165.752 41.2213 166.075 41.632C166.398 42.0427 166.559 42.556 166.559 43.172C166.559 43.6707 166.442 44.1107 166.207 44.492C166.002 44.844 165.65 45.1667 165.151 45.46C164.242 46.0467 163.186 46.516 161.983 46.868C160.78 47.1907 159.548 47.352 158.287 47.352ZM182.807 24.956C187.853 24.956 190.375 27.904 190.375 33.8V44.624C190.375 45.4453 190.126 46.0907 189.627 46.56C189.158 47.0293 188.498 47.264 187.647 47.264C186.797 47.264 186.122 47.0293 185.623 46.56C185.125 46.0907 184.875 45.4453 184.875 44.624V33.8C184.875 32.2453 184.553 31.116 183.907 30.412C183.291 29.6787 182.309 29.312 180.959 29.312C179.375 29.312 178.099 29.8107 177.131 30.808C176.193 31.8053 175.723 33.14 175.723 34.812V44.624C175.723 45.4453 175.474 46.0907 174.975 46.56C174.477 47.0293 173.802 47.264 172.951 47.264C172.101 47.264 171.426 47.0293 170.927 46.56C170.458 46.0907 170.223 45.4453 170.223 44.624V18.312C170.223 17.5493 170.473 16.9333 170.971 16.464C171.499 15.9947 172.174 15.76 172.995 15.76C173.817 15.76 174.477 15.98 174.975 16.42C175.474 16.86 175.723 17.4613 175.723 18.224V28.476C176.457 27.332 177.425 26.4667 178.627 25.88C179.859 25.264 181.253 24.956 182.807 24.956ZM205.29 24.956C208.282 24.956 210.496 25.704 211.934 27.2C213.4 28.6667 214.134 30.9107 214.134 33.932V44.668C214.134 45.46 213.899 46.0907 213.43 46.56C212.96 47 212.315 47.22 211.494 47.22C210.731 47.22 210.1 46.9853 209.602 46.516C209.132 46.0467 208.898 45.4307 208.898 44.668V43.7C208.399 44.844 207.607 45.7387 206.522 46.384C205.466 47.0293 204.234 47.352 202.826 47.352C201.388 47.352 200.083 47.0587 198.91 46.472C197.736 45.8853 196.812 45.0787 196.138 44.052C195.463 43.0253 195.126 41.8813 195.126 40.62C195.126 39.036 195.522 37.7893 196.314 36.88C197.135 35.9707 198.455 35.3107 200.274 34.9C202.092 34.4893 204.6 34.284 207.798 34.284H208.898V33.272C208.898 31.8347 208.59 30.7933 207.974 30.148C207.358 29.4733 206.36 29.136 204.982 29.136C204.131 29.136 203.266 29.268 202.386 29.532C201.506 29.7667 200.464 30.1187 199.262 30.588C198.499 30.9693 197.942 31.16 197.59 31.16C197.062 31.16 196.622 30.9693 196.27 30.588C195.947 30.2067 195.786 29.708 195.786 29.092C195.786 28.5933 195.903 28.168 196.138 27.816C196.402 27.4347 196.827 27.0827 197.414 26.76C198.44 26.2027 199.658 25.7627 201.066 25.44C202.503 25.1173 203.911 24.956 205.29 24.956ZM203.926 43.392C205.392 43.392 206.58 42.908 207.49 41.94C208.428 40.9427 208.898 39.6667 208.898 38.112V37.188H208.106C206.14 37.188 204.615 37.276 203.53 37.452C202.444 37.628 201.667 37.936 201.198 38.376C200.728 38.816 200.494 39.4173 200.494 40.18C200.494 41.1187 200.816 41.896 201.462 42.512C202.136 43.0987 202.958 43.392 203.926 43.392ZM237.675 15.76C238.497 15.76 239.171 15.9947 239.699 16.464C240.227 16.9333 240.491 17.5493 240.491 18.312V44.624C240.491 45.416 240.242 46.0467 239.743 46.516C239.245 46.9853 238.585 47.22 237.763 47.22C236.942 47.22 236.282 46.9853 235.783 46.516C235.285 46.0467 235.035 45.416 235.035 44.624V43.524C234.39 44.7267 233.451 45.6653 232.219 46.34C231.017 47.0147 229.638 47.352 228.083 47.352C226.235 47.352 224.578 46.8827 223.111 45.944C221.674 45.0053 220.545 43.6853 219.723 41.984C218.931 40.2533 218.535 38.2733 218.535 36.044C218.535 33.8147 218.931 31.864 219.723 30.192C220.545 28.52 221.674 27.2293 223.111 26.32C224.549 25.4107 226.206 24.956 228.083 24.956C229.638 24.956 231.017 25.2787 232.219 25.924C233.422 26.5693 234.346 27.4787 234.991 28.652V18.224C234.991 17.4907 235.226 16.904 235.695 16.464C236.194 15.9947 236.854 15.76 237.675 15.76ZM229.535 43.084C231.295 43.084 232.645 42.4827 233.583 41.28C234.551 40.0773 235.035 38.3613 235.035 36.132C235.035 33.9027 234.551 32.2013 233.583 31.028C232.645 29.8253 231.31 29.224 229.579 29.224C227.819 29.224 226.455 29.8107 225.487 30.984C224.519 32.1573 224.035 33.844 224.035 36.044C224.035 38.2733 224.519 40.004 225.487 41.236C226.455 42.468 227.805 43.084 229.535 43.084ZM255.477 24.956C258.469 24.956 260.684 25.704 262.121 27.2C263.588 28.6667 264.321 30.9107 264.321 33.932V44.668C264.321 45.46 264.086 46.0907 263.617 46.56C263.148 47 262.502 47.22 261.681 47.22C260.918 47.22 260.288 46.9853 259.789 46.516C259.32 46.0467 259.085 45.4307 259.085 44.668V43.7C258.586 44.844 257.794 45.7387 256.709 46.384C255.653 47.0293 254.421 47.352 253.013 47.352C251.576 47.352 250.27 47.0587 249.097 46.472C247.924 45.8853 247 45.0787 246.325 44.052C245.65 43.0253 245.313 41.8813 245.313 40.62C245.313 39.036 245.709 37.7893 246.501 36.88C247.322 35.9707 248.642 35.3107 250.461 34.9C252.28 34.4893 254.788 34.284 257.985 34.284H259.085V33.272C259.085 31.8347 258.777 30.7933 258.161 30.148C257.545 29.4733 256.548 29.136 255.169 29.136C254.318 29.136 253.453 29.268 252.573 29.532C251.693 29.7667 250.652 30.1187 249.449 30.588C248.686 30.9693 248.129 31.16 247.777 31.16C247.249 31.16 246.809 30.9693 246.457 30.588C246.134 30.2067 245.973 29.708 245.973 29.092C245.973 28.5933 246.09 28.168 246.325 27.816C246.589 27.4347 247.014 27.0827 247.601 26.76C248.628 26.2027 249.845 25.7627 251.253 25.44C252.69 25.1173 254.098 24.956 255.477 24.956ZM254.113 43.392C255.58 43.392 256.768 42.908 257.677 41.94C258.616 40.9427 259.085 39.6667 259.085 38.112V37.188H258.293C256.328 37.188 254.802 37.276 253.717 37.452C252.632 37.628 251.854 37.936 251.385 38.376C250.916 38.816 250.681 39.4173 250.681 40.18C250.681 41.1187 251.004 41.896 251.649 42.512C252.324 43.0987 253.145 43.392 254.113 43.392Z" fill="#2C3E50"/>
<defs>
<clipPath id="clip0">
<rect width="48" height="48" fill="white" transform="translate(290.831) rotate(28.4009)"/>
</clipPath>
</defs>
</svg>
